<svg width="1400" height="130" viewBox="0 0 3916 998" fill="none" xmlns="http://www.w3.org/2000/svg">
<rect x="0.420898" width="755.531" height="997.569" rx="100" fill="#F0F0F0"/>
<path d="M642.653 517.985V488.604H280.03V517.985C280.03 554.49 313.65 584.083 355.121 584.083H567.56C609.034 584.084 642.653 554.491 642.653 517.985Z" fill="#F2995E"/>
<path d="M492.692 235.616H421.869C339.048 235.616 271.908 294.715 271.908 367.617V373.087H642.653V367.617C642.653 294.716 575.514 235.616 492.692 235.616Z" fill="#FF8859"/>
<path d="M556.303 344.841C555.536 344.841 554.769 344.768 554.001 344.633C553.246 344.498 552.502 344.3 551.794 344.04C551.085 343.781 550.389 343.458 549.751 343.084C549.114 342.71 548.5 342.274 547.957 341.796C547.414 341.318 546.918 340.777 546.493 340.216C546.068 339.645 545.702 339.042 545.407 338.419C545.112 337.795 544.888 337.141 544.734 336.475C544.581 335.8 544.498 335.125 544.498 334.449C544.498 333.763 544.581 333.088 544.734 332.412C544.888 331.747 545.112 331.093 545.407 330.469C545.702 329.846 546.068 329.243 546.493 328.672C546.918 328.11 547.414 327.57 547.957 327.092C548.5 326.613 549.114 326.188 549.751 325.804C550.388 325.429 551.085 325.107 551.794 324.848C552.502 324.588 553.246 324.39 554.001 324.255C555.524 323.985 557.094 323.985 558.617 324.255C559.373 324.39 560.104 324.588 560.825 324.848C561.533 325.107 562.218 325.429 562.855 325.804C563.504 326.188 564.106 326.614 564.649 327.092C565.193 327.57 565.688 328.11 566.125 328.672C566.55 329.243 566.916 329.846 567.211 330.469C567.506 331.093 567.731 331.747 567.884 332.412C568.038 333.088 568.108 333.763 568.108 334.449C568.108 337.182 566.857 339.853 564.649 341.796C564.106 342.274 563.504 342.71 562.855 343.084C562.218 343.458 561.533 343.781 560.825 344.04C560.104 344.3 559.373 344.498 558.617 344.633C557.85 344.768 557.082 344.841 556.303 344.841Z" fill="#323232"/>
<path d="M205.274 540.322C204.507 540.322 203.727 540.249 202.972 540.114C202.216 539.979 201.473 539.781 200.764 539.522C200.044 539.262 199.36 538.94 198.722 538.566C198.073 538.191 197.471 537.755 196.928 537.277C196.385 536.798 195.889 536.259 195.464 535.698C195.039 535.126 194.673 534.523 194.378 533.9C194.083 533.276 193.858 532.622 193.705 531.957C193.551 531.281 193.469 530.606 193.469 529.93C193.469 527.187 194.732 524.506 196.928 522.573C197.471 522.095 198.073 521.669 198.722 521.285C199.36 520.911 200.044 520.589 200.764 520.329C201.473 520.069 202.216 519.872 202.972 519.736C204.494 519.466 206.053 519.466 207.576 519.736C208.331 519.872 209.075 520.069 209.783 520.329C210.504 520.589 211.188 520.911 211.826 521.285C212.475 521.669 213.077 522.095 213.62 522.573C215.816 524.506 217.079 527.187 217.079 529.93C217.079 530.606 216.996 531.281 216.843 531.957C216.701 532.622 216.465 533.276 216.17 533.9C215.875 534.523 215.521 535.126 215.096 535.698C214.659 536.259 214.163 536.799 213.62 537.277C213.077 537.755 212.475 538.191 211.826 538.566C211.188 538.94 210.504 539.262 209.783 539.522C209.075 539.781 208.331 539.979 207.576 540.114C206.82 540.249 206.041 540.322 205.274 540.322Z" fill="#323232"/>
<path d="M642.257 373.089H608.922V416.069C608.922 435.983 590.581 452.128 567.957 452.128C545.332 452.128 526.992 435.984 526.992 416.069V443.468C536.829 451.524 548.168 458.251 567.102 458.251C604 458.251 620.55 424.209 647.988 418.89C660.032 416.554 668.592 407.126 668.592 396.27C668.592 383.467 656.801 373.089 642.257 373.089Z" fill="#1BCF92"/>
<path d="M404.094 452.128C381.47 452.128 363.129 435.984 363.129 416.069V373.089H242.005C239.752 377.402 238.487 382.196 238.487 387.254C238.487 401.817 249.006 414.619 264.329 419.301C269.833 417.518 276.15 416.454 283.668 416.454C330.866 416.454 330.866 458.252 378.071 458.252H378.299C389.711 458.252 398.364 455.809 405.592 452.104C405.095 452.12 404.596 452.128 404.094 452.128Z" fill="#1BCF92"/>
<path d="M445.062 452.546V422.785C444.791 422.926 444.523 423.068 444.256 423.213C440.586 439.289 424.77 451.497 405.593 452.104C398.365 455.808 389.712 458.251 378.3 458.251H378.072C330.867 458.251 330.867 416.454 283.668 416.454C268.544 416.454 258.268 420.749 249.731 426.582C260.291 462.264 297.138 488.605 340.983 488.605H486.027C463.403 488.605 445.062 472.461 445.062 452.546Z" fill="#D04E42"/>
<path d="M643.339 420.086C618.573 428.026 601.871 458.25 567.102 458.25C548.168 458.25 536.829 451.523 526.992 443.467V452.545C526.992 472.46 508.651 488.604 486.027 488.604H623.561C646.441 488.604 664.99 472.277 664.99 452.136C664.991 438.302 656.237 426.266 643.339 420.086Z" fill="#D04E42"/>
<path d="M414.483 416.069V373.089H363.13V416.069C363.13 435.984 381.471 452.128 404.095 452.128C413.819 452.128 422.746 449.14 429.772 444.158C420.452 437.548 414.483 427.425 414.483 416.069Z" fill="white"/>
<path d="M429.771 444.158C434.203 447.301 439.39 449.651 445.06 450.956V416.07C445.06 427.425 439.091 437.548 429.771 444.158Z" fill="#FFD15C"/>
<path d="M414.483 373.089V416.069C414.483 427.425 420.452 437.548 429.772 444.158C439.092 437.548 445.061 427.425 445.061 416.069V450.955V452.546C445.061 472.461 463.402 488.605 486.026 488.605C495.75 488.605 504.677 485.617 511.702 480.635C521.023 474.025 526.991 463.901 526.991 452.546V416.069C526.991 435.984 545.332 452.128 567.956 452.128C571.546 452.128 575.027 451.719 578.344 450.956C584.014 449.652 589.201 447.301 593.633 444.158C602.953 437.548 608.922 427.425 608.922 416.069V373.089H414.483Z" fill="#FFD15C"/>
<path d="M484.559 144.256L378.185 90.1963V198.316L484.559 144.256Z" fill="#279FC9"/>
<path d="M680.396 396.27C680.396 381.499 669.502 368.925 654.415 364.448C652.492 287.391 580.684 225.225 492.689 225.225H389.989V204.316L490.461 153.255C494.113 151.399 496.363 147.969 496.363 144.256C496.363 140.543 494.113 137.113 490.461 135.257L384.087 81.1973C380.434 79.3414 375.934 79.3414 372.281 81.1973C368.629 83.0532 366.379 86.4834 366.379 90.1962V225.225H263.677C175.683 225.225 103.874 287.39 101.951 364.447C86.8655 368.925 75.9717 381.499 75.9717 396.27C75.9717 406.964 81.8518 416.79 91.1071 423.006C83.7607 431.156 79.5746 441.372 79.5746 452.137C79.5746 467.843 88.399 481.768 101.911 490.274V517.984C101.911 560.16 140.893 594.473 188.808 594.473H567.559C615.474 594.473 654.456 560.16 654.456 517.984V490.274C667.969 481.768 676.792 467.843 676.792 452.137C676.792 441.372 672.607 431.156 665.26 423.006C674.517 416.79 680.396 406.963 680.396 396.27ZM389.989 108.195L460.948 144.257L389.989 180.318V108.195ZM263.677 246.008H492.689C566.995 246.008 627.788 297.916 630.734 362.698H125.634C125.91 356.62 126.696 350.654 127.953 344.835H508.6C515.12 344.835 520.406 340.183 520.406 334.444C520.406 328.705 515.12 324.052 508.6 324.052H134.688C154.633 278.453 204.933 246.008 263.677 246.008ZM623.558 478.213H529.987C533.479 473.594 536.057 468.395 537.492 462.819C545.396 466.288 554.988 468.642 567.1 468.642C592.674 468.642 610.112 455.177 624.122 444.358C630.377 439.529 636.361 434.908 642.307 431.944C649.12 436.848 653.182 444.226 653.182 452.137C653.183 466.516 639.893 478.213 623.558 478.213ZM597.116 416.069C597.116 430.222 584.034 441.736 567.956 441.736C551.877 441.736 538.796 430.222 538.796 416.069C538.796 410.33 533.51 405.677 526.99 405.677C520.47 405.677 515.185 410.33 515.185 416.069V452.545C515.185 466.698 502.104 478.213 486.025 478.213C469.947 478.213 456.865 466.698 456.865 452.545V416.069C456.865 410.33 451.58 405.677 445.06 405.677C438.54 405.677 433.255 410.33 433.255 416.069C433.255 429.858 420.838 441.142 405.33 441.713C405.204 441.716 405.077 441.72 404.951 441.725C404.667 441.732 404.381 441.736 404.095 441.736C388.016 441.736 374.935 430.222 374.935 416.069V383.48H597.117V416.069H597.116ZM103.185 452.137C103.185 444.226 107.247 436.848 114.06 431.944C120.007 434.908 125.99 439.529 132.245 444.358C146.256 455.178 163.694 468.642 189.267 468.642C217.777 468.642 232.782 455.354 244.839 444.677C256.09 434.714 264.977 426.845 283.666 426.845C302.353 426.845 311.239 434.714 322.491 444.676C334.549 455.353 349.554 468.642 378.069 468.642H378.297C389.681 468.642 399.751 466.571 408.984 462.321C417.92 461.594 426.219 458.898 433.311 454.733C433.769 463.384 436.928 471.424 442.061 478.213H132.809C116.475 478.213 103.185 466.516 103.185 452.137ZM114.112 383.48H351.324V416.069C351.324 427.431 355.983 437.853 363.707 445.933C353.896 443.007 347.152 437.034 339.236 430.025C327.18 419.349 312.175 406.063 283.667 406.063C255.156 406.063 240.151 419.35 228.094 430.027C216.843 439.991 207.957 447.86 189.268 447.86C172.583 447.86 160.552 438.571 147.816 428.736C138.499 421.543 128.867 414.104 117.071 410.322C116.058 409.997 115.01 409.8 113.956 409.727C113.022 409.287 112.006 408.952 110.922 408.741C104.351 407.468 99.582 402.222 99.582 396.27C99.582 389.217 106.1 383.48 114.112 383.48ZM630.845 498.996V517.985C630.845 518.503 630.837 519.02 630.82 519.534H252.977C246.457 519.534 241.172 524.186 241.172 529.926C241.172 535.665 246.457 540.317 252.977 540.317H625.536C615.739 559.948 593.438 573.692 567.559 573.692H188.808C153.912 573.692 125.522 548.702 125.522 517.985V498.996H630.845ZM645.446 408.742C644.361 408.953 643.343 409.288 642.41 409.728C641.357 409.801 640.308 409.998 639.297 410.323C632.438 412.522 626.31 415.959 620.55 419.863C620.666 418.611 620.725 417.346 620.725 416.069V383.48H642.255C650.267 383.48 656.785 389.217 656.785 396.27C656.786 402.222 652.017 407.468 645.446 408.742Z" fill="#323232"/>
<rect x="861.724" width="755.531" height="997.569" rx="100" fill="#F0F0F0"/>
<path d="M1437.8 448.891L1431.22 442.595V352.354C1431.22 348.48 1427.65 345.34 1423.25 345.34H1419.49C1419.09 338.276 1417.44 330.98 1412.39 324.868C1403.9 314.608 1389.33 311.262 1375.24 308.026C1365.89 305.878 1357.06 303.851 1351.18 300.083C1345.41 296.39 1340.56 289.686 1335.42 282.589C1327.54 271.701 1319.4 260.444 1305.49 256.469C1292.16 252.659 1278.34 257.401 1264.98 261.985C1256.17 265.006 1247.06 268.129 1239.41 268.129C1231.86 268.129 1222.83 265.054 1214.1 262.081C1200.66 257.505 1186.76 252.774 1173.35 256.676C1159.58 260.685 1151.51 271.922 1143.72 282.79C1138.59 289.94 1133.74 296.695 1127.95 300.421C1122.09 304.192 1113.25 306.211 1103.89 308.35C1089.83 311.563 1075.29 314.884 1066.8 325.092C1061.75 331.149 1060.07 338.36 1059.63 345.34H1055.74C1051.34 345.34 1047.77 348.48 1047.77 352.354V442.595L1041.19 448.891C1035.36 454.468 1033.89 462.244 1037.35 469.185C1037.4 469.294 1037.46 469.401 1037.51 469.508C1037.54 469.561 1037.57 469.615 1037.6 469.669C1040.62 475.313 1046.36 479.127 1053.17 480.157C1053.49 480.205 1422.08 480.436 1422.08 480.436C1430.69 480.436 1438.18 476.125 1441.64 469.185C1445.11 462.246 1443.63 454.469 1437.8 448.891ZM1415.29 359.367V427.348L1397.92 410.734C1400.57 404.161 1401.91 397.273 1401.91 390.196C1401.91 378.97 1398.48 368.437 1392.49 359.367H1415.29ZM1270.76 275.054C1282.02 271.194 1292.65 267.547 1300.57 269.811C1309.03 272.229 1315.32 280.923 1321.99 290.126C1327.69 298.013 1333.6 306.169 1341.8 311.424C1350.12 316.753 1360.85 319.217 1371.22 321.599C1383.13 324.333 1394.37 326.915 1399.5 333.121C1402.17 336.346 1403.2 340.763 1403.53 345.34H1379.81C1367.3 335.002 1350.48 328.661 1332.01 328.661C1325.97 328.661 1320.01 329.335 1314.24 330.668L1259.85 278.635C1263.53 277.536 1267.17 276.288 1270.76 275.054ZM1385.97 390.196C1385.97 393.015 1385.7 395.794 1385.15 398.519L1327.01 342.889C1328.66 342.755 1330.33 342.689 1332 342.689C1361.76 342.688 1385.97 364 1385.97 390.196ZM1079.65 333.382C1084.79 327.206 1096.01 324.641 1107.89 321.927C1118.29 319.551 1129.04 317.096 1137.36 311.746C1145.6 306.443 1151.49 298.225 1157.19 290.278C1163.78 281.096 1170 272.424 1178.35 269.994C1186.35 267.667 1197.04 271.308 1208.36 275.163C1211.9 276.37 1215.49 277.592 1219.11 278.669L1166.33 329.162C1163.37 328.829 1160.38 328.661 1157.39 328.661C1138.92 328.661 1122.09 335.001 1109.58 345.34H1075.6C1075.96 340.865 1077.01 336.55 1079.65 333.382ZM1151.94 342.928L1103.42 389.35C1103.91 365.153 1125.04 345.31 1151.94 342.928ZM1063.71 359.367H1096.9C1090.91 368.437 1087.48 378.97 1087.48 390.196C1087.48 394.558 1088 398.892 1089.03 403.123L1063.71 427.348V359.367V359.367ZM1427.05 463.549C1426.62 464.41 1425.28 466.41 1422.08 466.41H1056.92C1053.71 466.41 1052.37 464.409 1051.94 463.549C1051.91 463.482 1051.87 463.406 1051.84 463.323C1051.82 463.29 1051.81 463.255 1051.79 463.22C1051.79 463.202 1051.78 463.184 1051.77 463.166C1051.76 463.129 1051.74 463.091 1051.73 463.052C1051.72 463.033 1051.71 463.013 1051.71 462.993C1051.34 461.929 1051.12 460.108 1052.92 458.39L1235.5 283.704C1236 283.221 1236.55 282.885 1237.08 282.654C1238.02 282.241 1238.93 282.159 1239.5 282.159C1240.39 282.159 1242.09 282.359 1243.5 283.703L1254.65 294.375L1142.04 402.115C1139.06 404.967 1139.27 409.403 1142.51 412.026C1145.75 414.648 1150.79 414.465 1153.77 411.613L1265.48 304.734L1426.08 458.389C1428.24 460.464 1427.48 462.689 1427.05 463.549Z" fill="#323232"/>
<path d="M1131.75 422.774L1131.67 422.702C1128.56 419.956 1123.52 419.945 1120.4 422.678C1117.28 425.411 1117.27 429.851 1120.37 432.597L1120.46 432.669C1122.01 434.046 1124.06 434.735 1126.1 434.735C1128.14 434.735 1130.17 434.055 1131.72 432.693C1134.84 429.96 1134.86 425.519 1131.75 422.774Z" fill="#323232"/>
<path d="M1286.18 395.757L1283.69 393.561C1280.58 390.822 1275.53 390.822 1272.42 393.561C1269.31 396.3 1269.31 400.74 1272.42 403.479L1274.91 405.675C1276.47 407.045 1278.51 407.73 1280.55 407.73C1282.59 407.73 1284.63 407.045 1286.18 405.676C1289.29 402.937 1289.3 398.496 1286.18 395.757Z" fill="#323232"/>
<path d="M1340.03 400.111L1337.54 397.915C1334.42 395.176 1329.38 395.176 1326.27 397.915C1323.15 400.655 1323.15 405.096 1326.27 407.835L1328.76 410.031C1330.32 411.401 1332.36 412.085 1334.4 412.085C1336.44 412.085 1338.47 411.401 1340.03 410.031C1343.14 407.291 1343.14 402.85 1340.03 400.111Z" fill="#323232"/>
<path d="M1319.57 437.897L1317.07 435.701C1313.96 432.962 1308.92 432.961 1305.8 435.699C1302.69 438.438 1302.69 442.878 1305.8 445.618L1308.3 447.814C1309.85 449.184 1311.89 449.869 1313.93 449.869C1315.97 449.869 1318.01 449.184 1319.56 447.816C1322.68 445.077 1322.68 440.637 1319.57 437.897Z" fill="#323232"/>
<rect x="1723.03" width="755.531" height="997.569" rx="100" fill="#F0F0F0"/>
<path d="M2203.02 392.148C2202.65 391.825 2202.24 391.53 2201.8 391.278C2201.37 391.025 2200.91 390.808 2200.43 390.633C2199.95 390.457 2199.45 390.325 2198.94 390.233C2197.92 390.05 2196.86 390.05 2195.83 390.233C2195.32 390.324 2194.82 390.457 2194.34 390.633C2193.85 390.808 2193.39 391.026 2192.96 391.278C2192.52 391.53 2192.12 391.825 2191.75 392.148C2191.38 392.47 2191.05 392.828 2190.76 393.214C2190.47 393.593 2190.23 393.999 2190.03 394.427C2189.83 394.847 2189.68 395.289 2189.57 395.739C2189.47 396.187 2189.41 396.651 2189.41 397.107C2189.41 397.562 2189.47 398.025 2189.57 398.481C2189.68 398.923 2189.83 399.365 2190.03 399.793C2190.23 400.214 2190.47 400.621 2190.76 400.999C2191.05 401.385 2191.38 401.743 2191.75 402.066C2192.12 402.388 2192.52 402.683 2192.96 402.942C2193.39 403.195 2193.85 403.412 2194.34 403.588C2194.82 403.763 2195.32 403.896 2195.83 403.988C2196.34 404.078 2196.86 404.121 2197.38 404.121C2197.9 404.121 2198.43 404.078 2198.94 403.988C2199.45 403.896 2199.95 403.763 2200.43 403.588C2200.91 403.412 2201.37 403.195 2201.8 402.942C2202.24 402.683 2202.65 402.388 2203.02 402.066C2203.38 401.742 2203.72 401.385 2204.01 400.999C2204.3 400.621 2204.55 400.214 2204.75 399.793C2204.95 399.365 2205.1 398.923 2205.2 398.481C2205.3 398.025 2205.35 397.562 2205.35 397.107C2205.35 395.261 2204.5 393.452 2203.02 392.148Z" fill="#323232"/>
<path d="M2282.64 293.335H2226.58C2229.62 285.776 2231.2 277.761 2231.2 269.687C2231.2 263.755 2230.37 257.991 2228.8 252.481L2240.75 247.496C2243.71 250.557 2247.54 252.895 2251.95 254.283C2258.58 256.368 2265.73 256.053 2272.09 253.401C2278.45 250.75 2283.26 246.076 2285.62 240.241C2287.99 234.407 2287.64 228.11 2284.62 222.512C2282.38 218.345 2278.87 214.944 2274.53 212.625C2275.24 208.201 2274.48 203.653 2272.23 199.486C2266.01 187.928 2250.27 182.979 2237.14 188.453C2226.16 193.032 2220.42 203.477 2222.48 213.534L2207.65 219.721C2193.11 206.924 2173.03 198.999 2150.89 198.999C2131.77 198.999 2114.19 204.913 2100.38 214.774C2072.46 204.198 2041.07 204.647 2013.44 216.164C1995 223.854 1979.6 235.957 1968.9 251.165C1959.89 263.968 1954.56 278.423 1953.3 293.336H1925.17C1920.77 293.336 1917.2 296.477 1917.2 300.35V334.569C1917.2 338.442 1920.77 341.583 1925.17 341.583H1936.8L1963.95 539.175C1964.44 542.698 1967.83 545.347 1971.86 545.347H2235.94C2239.97 545.347 2243.37 542.698 2243.85 539.175L2271.01 341.583H2282.64C2287.04 341.583 2290.61 338.442 2290.61 334.569V300.349C2290.61 296.476 2287.04 293.335 2282.64 293.335ZM2235.72 223.537C2237.71 222.71 2239.22 221.197 2239.89 219.357C2240.57 217.516 2240.35 215.513 2239.29 213.818C2239.19 213.662 2239.1 213.504 2239.01 213.337C2236.55 208.771 2238.77 203.295 2243.96 201.131C2249.15 198.968 2255.37 200.924 2257.83 205.491C2259.21 208.051 2259.17 210.978 2257.72 213.522C2256.63 215.449 2256.6 217.714 2257.65 219.662C2258.69 221.61 2260.7 223.026 2263.09 223.502C2266.24 224.129 2268.84 225.957 2270.22 228.517C2271.41 230.73 2271.55 233.218 2270.61 235.523C2269.68 237.829 2267.78 239.676 2265.27 240.724C2262.75 241.771 2259.93 241.897 2257.31 241.071C2254.69 240.248 2252.59 238.576 2251.4 236.36C2251.31 236.192 2251.23 236.023 2251.15 235.852C2250.33 234.061 2248.7 232.649 2246.66 231.947C2244.61 231.245 2242.33 231.315 2240.35 232.142L2223.36 239.227C2221.79 236.345 2220 233.57 2218.02 230.918L2235.72 223.537ZM2150.89 213.026C2186.39 213.026 2215.26 238.445 2215.26 269.687C2215.26 277.861 2213.25 285.958 2209.4 293.334H2092.38C2088.54 285.959 2086.52 277.863 2086.52 269.687C2086.52 238.445 2115.4 213.026 2150.89 213.026ZM2020.27 228.841C2041.78 219.873 2065.99 218.81 2088.14 225.624C2077.16 237.717 2070.59 253.04 2070.59 269.688C2070.59 277.762 2072.17 285.776 2075.21 293.335H1969.29C1972.09 265.671 1991.47 240.848 2020.27 228.841ZM2252.77 357.431H2024.32C2019.91 357.431 2016.35 360.572 2016.35 364.446C2016.35 368.32 2019.91 371.46 2024.32 371.46H2250.85L2228.88 531.318H1978.93L1961.45 404.123H2164.23C2168.63 404.123 2172.2 400.982 2172.2 397.109C2172.2 393.236 2168.63 390.095 2164.23 390.095H1959.52L1952.85 341.583H2254.95L2252.77 357.431ZM2274.67 327.554H1933.14V307.364H2274.67V327.554Z" fill="#323232"/>
<path d="M2133.5 412.531C2106.36 412.531 2083.27 428.071 2075.1 449.575L2059.16 449.575C2056.16 441.043 2047.11 434.828 2036.44 434.828C2030.09 434.828 2024.12 437.004 2019.62 440.958C2015.13 444.912 2012.66 450.169 2012.66 455.76C2012.66 459.701 2013.89 463.47 2016.17 466.718C2013.89 469.965 2012.66 473.733 2012.66 477.675C2012.66 483.266 2015.13 488.523 2019.62 492.477C2024.12 496.43 2030.09 498.607 2036.44 498.607C2047.11 498.607 2056.16 492.392 2059.16 483.86H2075.1C2083.27 505.362 2106.36 520.904 2133.5 520.904C2167.44 520.904 2195.06 496.596 2195.06 466.718C2195.06 436.838 2167.44 412.531 2133.5 412.531ZM2072.04 469.83H2052.22C2050.03 469.83 2047.93 470.627 2046.42 472.032C2044.92 473.437 2044.14 475.326 2044.27 477.255C2044.28 477.393 2044.28 477.534 2044.28 477.675C2044.28 481.481 2040.76 484.578 2036.44 484.578C2034.34 484.578 2032.38 483.86 2030.89 482.556C2029.41 481.253 2028.6 479.519 2028.6 477.675C2028.6 475.542 2029.7 473.56 2031.61 472.238C2033.54 470.909 2034.67 468.873 2034.67 466.718C2034.67 464.562 2033.54 462.527 2031.61 461.196C2029.7 459.874 2028.6 457.892 2028.6 455.759C2028.6 453.915 2029.41 452.181 2030.89 450.878C2032.38 449.574 2034.34 448.856 2036.44 448.856C2040.76 448.856 2044.28 451.952 2044.28 455.759C2044.28 455.9 2044.28 456.04 2044.27 456.18C2044.14 458.108 2044.92 459.997 2046.42 461.402C2047.93 462.807 2050.03 463.604 2052.22 463.604L2072.04 463.603C2071.98 464.633 2071.94 465.671 2071.94 466.716C2071.94 467.762 2071.98 468.8 2072.04 469.83ZM2133.5 506.874C2108.35 506.874 2087.88 488.859 2087.88 466.716C2087.88 444.574 2108.35 426.56 2133.5 426.56C2158.66 426.56 2179.12 444.574 2179.12 466.716C2179.12 488.859 2158.66 506.874 2133.5 506.874Z" fill="#323232"/>
<path d="M2614.49 100C2614.49 44.7716 2659.26 0 2714.49 0H3270.02C3325.25 0 3370.02 44.7715 3370.02 100V897.569C3370.02 952.797 3325.25 997.569 3270.02 997.569H2714.49C2659.26 997.569 2614.49 952.797 2614.49 897.569V100Z" fill="#F0F0F0"/>
<path d="M3915.53 440.855C3915.44 440.406 3915.28 439.964 3915.08 439.543C3914.88 439.116 3914.63 438.709 3914.35 438.33C3914.06 437.944 3913.72 437.587 3913.36 437.264C3911.51 435.637 3908.76 434.886 3906.17 435.349C3905.66 435.44 3905.16 435.573 3904.68 435.749C3904.19 435.924 3903.73 436.142 3903.3 436.394C3902.86 436.647 3902.46 436.941 3902.09 437.264C3901.72 437.587 3901.39 437.944 3901.1 438.33C3900.81 438.709 3900.57 439.116 3900.37 439.543C3900.17 439.964 3900.02 440.406 3899.91 440.855C3899.81 441.304 3899.76 441.767 3899.76 442.223C3899.76 442.679 3899.81 443.142 3899.91 443.598C3900.02 444.04 3900.17 444.481 3900.37 444.909C3900.57 445.33 3900.81 445.737 3901.1 446.116C3901.39 446.502 3901.72 446.859 3902.09 447.182C3902.46 447.505 3902.86 447.799 3903.3 448.059C3903.73 448.311 3904.19 448.529 3904.68 448.704C3905.16 448.879 3905.66 449.013 3906.17 449.104C3906.68 449.195 3907.21 449.237 3907.72 449.237C3909.82 449.237 3911.88 448.494 3913.36 447.182C3913.72 446.859 3914.06 446.502 3914.35 446.116C3914.63 445.737 3914.88 445.33 3915.08 444.909C3915.28 444.481 3915.44 444.04 3915.53 443.598C3915.64 443.142 3915.69 442.679 3915.69 442.223C3915.69 441.767 3915.64 441.304 3915.53 440.855Z" fill="#323232"/>
<path d="M3122.76 352.591C3121.25 351.099 3119.09 350.245 3116.82 350.245H3107.51V261.991C3107.51 258.117 3103.95 254.976 3099.55 254.976H3071.77V228.047C3071.77 224.173 3068.21 221.033 3063.81 221.033H3028.07C3023.67 221.033 3020.1 224.173 3020.1 228.047V273.965H3000.3V235.608C3000.3 231.734 2996.73 228.593 2992.33 228.593H2964.56V204.728C2964.56 200.854 2960.99 197.713 2956.59 197.713H2920.85C2916.45 197.713 2912.88 200.854 2912.88 204.728V265.768H2885.11C2880.71 265.768 2877.14 268.908 2877.14 272.782V350.245H2867.84C2865.57 350.245 2863.4 351.099 2861.89 352.591C2860.38 354.084 2859.66 356.074 2859.92 358.06L2885.09 550.626C2885.55 554.166 2888.96 556.838 2893.01 556.838H3091.65C3095.7 556.838 3099.11 554.166 3099.57 550.626L3124.73 358.06C3124.99 356.074 3124.28 354.084 3122.76 352.591ZM3071.78 269.005H3091.58V350.245H3071.78V269.005ZM3036.04 235.061H3055.84V351.947C3054.44 353.005 3053.46 354.486 3053.17 356.19L3047.35 389.349H3036.04V235.061V235.061ZM3000.3 287.993H3020.1V389.348H3000.3V287.993ZM2964.56 242.622H2984.36V389.348H2964.56V242.622ZM2928.82 211.742H2948.62V389.348H2937.3L2931.49 356.19C2931.19 354.486 2930.21 353.004 2928.82 351.946V211.742V211.742ZM2893.08 279.796H2912.88V350.245H2893.08V279.796ZM2929.09 542.811L2932.44 517.196H3052.22L3055.56 542.811H2929.09ZM3084.55 542.811H3071.6L3067.24 509.381C3066.77 505.841 3063.37 503.168 3059.32 503.168H2925.34C2921.29 503.168 2917.88 505.841 2917.42 509.381L2913.05 542.811H2900.11L2889.39 460.74H3042.42C3046.82 460.74 3050.38 457.6 3050.38 453.726C3050.38 449.852 3046.82 446.712 3042.42 446.712H2887.55L2879.99 388.861H2892.83L2898.64 422.021C2899.24 425.441 2902.59 427.965 2906.52 427.965H3078.14C3082.07 427.965 3085.42 425.441 3086.01 422.021L3091.83 388.861H3104.66L3084.55 542.811ZM3106.5 374.833H3084.99C3081.06 374.833 3077.72 377.357 3077.12 380.777L3071.31 413.937H2913.35L2907.54 380.777C2906.94 377.356 2903.59 374.833 2899.66 374.833H2878.16L2876.78 364.274H2916.78L2922.59 397.432C2922.93 399.363 2924.15 401.01 2925.85 402.077C2925.86 402.086 2925.88 402.096 2925.9 402.106C2925.93 402.126 2925.96 402.145 2925.99 402.165C2926.02 402.18 2926.04 402.195 2926.07 402.211C2926.09 402.223 2926.11 402.236 2926.14 402.248C2926.17 402.268 2926.2 402.287 2926.24 402.306C2926.25 402.313 2926.26 402.32 2926.28 402.327C2926.32 402.349 2926.36 402.371 2926.4 402.393C2926.41 402.396 2926.41 402.399 2926.42 402.403C2927.26 402.84 2928.19 403.146 2929.2 403.287C2929.2 403.288 2929.2 403.289 2929.21 403.289C2929.26 403.296 2929.31 403.303 2929.36 403.308C2929.37 403.31 2929.39 403.312 2929.4 403.314C2929.44 403.319 2929.49 403.324 2929.53 403.328C2929.55 403.33 2929.57 403.333 2929.6 403.335C2929.63 403.338 2929.67 403.342 2929.71 403.345C2929.74 403.347 2929.76 403.35 2929.79 403.352C2929.83 403.355 2929.86 403.357 2929.9 403.359C2929.93 403.362 2929.96 403.363 2929.99 403.364C2930.02 403.366 2930.06 403.368 2930.09 403.369C2930.13 403.371 2930.17 403.372 2930.21 403.373C2930.23 403.374 2930.25 403.375 2930.28 403.376C2930.34 403.377 2930.41 403.378 2930.47 403.378H3054.19C3054.25 403.378 3054.32 403.377 3054.38 403.376C3054.41 403.375 3054.43 403.374 3054.45 403.373C3054.49 403.372 3054.53 403.371 3054.57 403.369C3054.61 403.368 3054.64 403.366 3054.67 403.364C3054.7 403.363 3054.73 403.361 3054.76 403.359C3054.8 403.357 3054.83 403.355 3054.87 403.352C3054.9 403.35 3054.92 403.347 3054.95 403.345C3054.99 403.342 3055.03 403.338 3055.06 403.335C3055.09 403.333 3055.11 403.331 3055.13 403.328C3055.17 403.324 3055.22 403.319 3055.26 403.314C3055.27 403.312 3055.29 403.31 3055.3 403.308C3055.35 403.302 3055.4 403.296 3055.45 403.289C3055.46 403.289 3055.46 403.288 3055.46 403.287C3056.47 403.146 3057.4 402.84 3058.24 402.403C3058.25 402.4 3058.25 402.396 3058.26 402.393C3058.3 402.371 3058.34 402.349 3058.38 402.327C3058.4 402.32 3058.41 402.313 3058.42 402.306C3058.46 402.287 3058.49 402.267 3058.53 402.248C3058.55 402.236 3058.57 402.223 3058.59 402.211C3058.62 402.195 3058.64 402.18 3058.67 402.165C3058.7 402.145 3058.73 402.126 3058.76 402.106C3058.78 402.096 3058.8 402.086 3058.81 402.077C3060.51 401.01 3061.73 399.364 3062.07 397.432L3067.88 364.274H3107.88L3106.5 374.833Z" fill="#323232"/>
</svg>
